<svg width="105" height="36" viewBox="0 0 105 36" fill="none" xmlns="http://www.w3.org/2000/svg">
<path d="M0 0H62C73.0457 0 82 8.95431 82 20V36H0V0Z" fill="#27376F"/>
<path d="M29.74 17.8C30.5533 17.9733 31.2067 18.38 31.7 19.02C32.1933 19.6467 32.44 20.3667 32.44 21.18C32.44 22.3533 32.0267 23.2867 31.2 23.98C30.3867 24.66 29.2467 25 27.78 25H21.24V10.96H27.56C28.9867 10.96 30.1 11.2867 30.9 11.94C31.7133 12.5933 32.12 13.48 32.12 14.6C32.12 15.4267 31.9 16.1133 31.46 16.66C31.0333 17.2067 30.46 17.5867 29.74 17.8ZM24.66 16.64H26.9C27.46 16.64 27.8867 16.52 28.18 16.28C28.4867 16.0267 28.64 15.66 28.64 15.18C28.64 14.7 28.4867 14.3333 28.18 14.08C27.8867 13.8267 27.46 13.7 26.9 13.7H24.66V16.64ZM27.18 22.24C27.7533 22.24 28.1933 22.1133 28.5 21.86C28.82 21.5933 28.98 21.2133 28.98 20.72C28.98 20.2267 28.8133 19.84 28.48 19.56C28.16 19.28 27.7133 19.14 27.14 19.14H24.66V22.24H27.18ZM37.7836 10.96V19.36C37.7836 20.2 37.9903 20.8467 38.4036 21.3C38.8169 21.7533 39.4236 21.98 40.2236 21.98C41.0236 21.98 41.6369 21.7533 42.0636 21.3C42.4903 20.8467 42.7036 20.2 42.7036 19.36V10.96H46.1236V19.34C46.1236 20.5933 45.8569 21.6533 45.3236 22.52C44.7903 23.3867 44.0703 24.04 43.1636 24.48C42.2703 24.92 41.2703 25.14 40.1636 25.14C39.0569 25.14 38.0636 24.9267 37.1836 24.5C36.3169 24.06 35.6303 23.4067 35.1236 22.54C34.6169 21.66 34.3636 20.5933 34.3636 19.34V10.96H37.7836ZM60.5652 10.96L55.7052 20.36V25H52.2852V20.36L47.4252 10.96H51.3052L54.0252 16.84L56.7252 10.96H60.5652Z" fill="white"/>
<path d="M88.66 10.96V25H85.24V10.96H88.66ZM103.698 25H100.278L94.5584 16.34V25H91.1384V10.96H94.5584L100.278 19.66V10.96H103.698V25Z" fill="black"/>
</svg>
